<svg width="32" height="32" viewBox="0 0 32 32" fill="none" xmlns="http://www.w3.org/2000/svg">
<path d="M22.0863 6.08999C20.5004 4.41952 18.7154 2.95018 16.7712 1.71499C16.5382 1.57531 16.2717 1.50153 16 1.50153C15.7283 1.50153 15.4618 1.57531 15.2288 1.71499C13.2846 2.95018 11.4996 4.41952 9.91375 6.08999C6.375 9.80874 4.5 13.9275 4.5 18C4.5 21.05 5.7116 23.975 7.86827 26.1317C10.0249 28.2884 12.95 29.5 16 29.5C19.05 29.5 21.9751 28.2884 24.1317 26.1317C26.2884 23.975 27.5 21.05 27.5 18C27.5 13.9275 25.625 9.80874 22.0863 6.08999ZM12.5 23C12.5 21.3337 13.1912 19.7175 14.5562 18.1937C14.9981 17.7023 15.4811 17.2494 16 16.84C16.5189 17.2494 17.0019 17.7023 17.4438 18.1937C18.8088 19.7175 19.5 21.3337 19.5 23C19.5 23.9282 19.1313 24.8185 18.4749 25.4749C17.8185 26.1312 16.9283 26.5 16 26.5C15.0717 26.5 14.1815 26.1312 13.5251 25.4749C12.8687 24.8185 12.5 23.9282 12.5 23ZM22.48 23.4925C22.4912 23.33 22.5 23.1662 22.5 23C22.5 17.2175 17 13.8537 16.7712 13.7137C16.5382 13.5741 16.2717 13.5003 16 13.5003C15.7283 13.5003 15.4618 13.5741 15.2288 13.7137C15 13.8537 9.5 17.2175 9.5 23C9.5 23.1662 9.50875 23.33 9.52 23.4925C8.21471 21.9603 7.49849 20.0128 7.5 18C7.5 14.685 9.02625 11.3925 12.035 8.21249C13.2414 6.9472 14.5695 5.80377 16 4.79874C18.2275 6.35749 24.5 11.3387 24.5 18C24.5015 20.0128 23.7853 21.9603 22.48 23.4925Z" fill="#182944"/>
</svg>
