<svg width="814" height="130" viewBox="0 0 814 130" fill="none" xmlns="http://www.w3.org/2000/svg">
<path d="M189.202 98.696V31.88H204.274V98.696H189.202ZM167.986 44.072V30.92H225.49V44.072H167.986Z" fill="white"/>
<path d="M262.504 99.752C257.448 99.752 252.744 98.888 248.392 97.16C244.104 95.368 240.328 92.872 237.064 89.672C233.864 86.472 231.368 82.76 229.576 78.536C227.784 74.248 226.888 69.64 226.888 64.712C226.888 59.784 227.784 55.208 229.576 50.984C231.368 46.696 233.864 42.984 237.064 39.848C240.264 36.712 244.008 34.28 248.296 32.552C252.648 30.76 257.352 29.864 262.408 29.864C267.784 29.864 272.552 30.728 276.712 32.456C280.936 34.184 284.616 36.552 287.752 39.56L277.672 49.736C275.88 47.816 273.704 46.312 271.144 45.224C268.648 44.136 265.736 43.592 262.408 43.592C259.464 43.592 256.744 44.104 254.248 45.128C251.816 46.088 249.704 47.496 247.912 49.352C246.184 51.208 244.808 53.448 243.784 56.072C242.824 58.696 242.344 61.576 242.344 64.712C242.344 67.912 242.824 70.824 243.784 73.448C244.808 76.072 246.184 78.312 247.912 80.168C249.704 82.024 251.816 83.464 254.248 84.488C256.744 85.512 259.464 86.024 262.408 86.024C265.864 86.024 268.872 85.48 271.432 84.392C273.992 83.304 276.2 81.8 278.056 79.88L288.232 90.056C284.968 93.064 281.224 95.432 277 97.16C272.84 98.888 268.008 99.752 262.504 99.752Z" fill="white"/>
<path d="M315.758 99.752C310.19 99.752 305.39 98.856 301.358 97.064C297.39 95.208 293.742 92.424 290.414 88.712L300.206 79.016C302.382 81.512 304.782 83.464 307.406 84.872C310.094 86.216 313.198 86.888 316.718 86.888C319.918 86.888 322.382 86.312 324.11 85.16C325.902 84.008 326.798 82.408 326.798 80.36C326.798 78.504 326.222 77 325.07 75.848C323.918 74.696 322.382 73.704 320.462 72.872C318.606 72.04 316.526 71.24 314.222 70.472C311.982 69.704 309.742 68.84 307.502 67.88C305.262 66.856 303.182 65.608 301.262 64.136C299.406 62.6 297.902 60.712 296.75 58.472C295.598 56.168 295.022 53.288 295.022 49.832C295.022 45.672 296.014 42.088 297.998 39.08C300.046 36.072 302.862 33.8 306.446 32.264C310.03 30.664 314.158 29.864 318.83 29.864C323.566 29.864 327.886 30.696 331.79 32.36C335.758 34.024 339.022 36.296 341.582 39.176L331.79 48.872C329.742 46.76 327.662 45.192 325.55 44.168C323.502 43.144 321.166 42.632 318.542 42.632C315.918 42.632 313.838 43.144 312.302 44.168C310.766 45.128 309.998 46.536 309.998 48.392C309.998 50.12 310.574 51.528 311.726 52.616C312.878 53.64 314.382 54.536 316.238 55.304C318.158 56.072 320.238 56.84 322.478 57.608C324.782 58.376 327.054 59.272 329.294 60.296C331.534 61.32 333.582 62.632 335.438 64.232C337.358 65.768 338.894 67.752 340.046 70.184C341.198 72.552 341.774 75.496 341.774 79.016C341.774 85.48 339.47 90.568 334.862 94.28C330.254 97.928 323.886 99.752 315.758 99.752Z" fill="white"/>
<path d="M381.176 74.024V62.312H395.768C397.624 62.312 399.32 61.928 400.856 61.16C402.392 60.392 403.608 59.272 404.504 57.8C405.4 56.328 405.848 54.536 405.848 52.424C405.848 50.376 405.4 48.616 404.504 47.144C403.608 45.672 402.392 44.552 400.856 43.784C399.32 43.016 397.624 42.632 395.768 42.632H381.176V30.92H397.976C402.264 30.92 406.136 31.784 409.592 33.512C413.048 35.24 415.768 37.736 417.752 41C419.8 44.2 420.824 48.008 420.824 52.424C420.824 56.84 419.8 60.68 417.752 63.944C415.768 67.144 413.048 69.64 409.592 71.432C406.136 73.16 402.264 74.024 397.976 74.024H381.176ZM369.656 98.696V30.92H384.728V98.696H369.656Z" fill="white"/>
<path d="M428.593 98.696V29H443.281V98.696H428.593Z" fill="white"/>
<path d="M476.089 99.752C471.289 99.752 466.937 98.696 463.033 96.584C459.193 94.408 456.153 91.464 453.913 87.752C451.673 84.04 450.553 79.88 450.553 75.272C450.553 70.664 451.673 66.536 453.913 62.888C456.153 59.24 459.193 56.36 463.033 54.248C466.873 52.072 471.225 50.984 476.089 50.984C480.953 50.984 485.305 52.04 489.145 54.152C492.985 56.264 496.025 59.176 498.265 62.888C500.505 66.536 501.625 70.664 501.625 75.272C501.625 79.88 500.505 84.04 498.265 87.752C496.025 91.464 492.985 94.408 489.145 96.584C485.305 98.696 480.953 99.752 476.089 99.752ZM476.089 86.408C478.201 86.408 480.057 85.96 481.657 85.064C483.257 84.104 484.473 82.792 485.305 81.128C486.201 79.4 486.649 77.448 486.649 75.272C486.649 73.096 486.201 71.208 485.305 69.608C484.409 67.944 483.161 66.664 481.561 65.768C480.025 64.808 478.201 64.328 476.089 64.328C474.041 64.328 472.217 64.808 470.617 65.768C469.017 66.664 467.769 67.944 466.873 69.608C465.977 71.272 465.529 73.192 465.529 75.368C465.529 77.48 465.977 79.4 466.873 81.128C467.769 82.792 469.017 84.104 470.617 85.064C472.217 85.96 474.041 86.408 476.089 86.408Z" fill="white"/>
<path d="M508.937 98.696V52.04H523.625V98.696H508.937ZM538.793 98.696V71.432C538.793 69.064 538.057 67.24 536.585 65.96C535.177 64.616 533.417 63.944 531.305 63.944C529.833 63.944 528.521 64.264 527.369 64.904C526.217 65.48 525.289 66.312 524.585 67.4C523.945 68.488 523.625 69.832 523.625 71.432L517.961 68.936C517.961 65.224 518.761 62.056 520.361 59.432C521.961 56.744 524.137 54.696 526.889 53.288C529.641 51.816 532.745 51.08 536.201 51.08C539.465 51.08 542.377 51.816 544.937 53.288C547.561 54.76 549.641 56.808 551.177 59.432C552.713 62.056 553.481 65.192 553.481 68.84V98.696H538.793ZM568.649 98.696V71.432C568.649 69.064 567.913 67.24 566.441 65.96C565.033 64.616 563.273 63.944 561.161 63.944C559.689 63.944 558.377 64.264 557.225 64.904C556.073 65.48 555.145 66.312 554.441 67.4C553.801 68.488 553.481 69.832 553.481 71.432L545.033 70.28C545.161 66.312 546.089 62.92 547.817 60.104C549.609 57.224 551.945 55.016 554.825 53.48C557.769 51.88 561.065 51.08 564.713 51.08C568.297 51.08 571.465 51.848 574.217 53.384C577.033 54.856 579.241 57 580.841 59.816C582.505 62.568 583.337 65.896 583.337 69.8V98.696H568.649Z" fill="white"/>
<path d="M619.63 99.656C616.494 99.656 613.614 99.016 610.99 97.736C608.366 96.392 606.222 94.632 604.558 92.456C602.894 90.216 601.934 87.72 601.678 84.968V65.288C601.934 62.536 602.894 60.104 604.558 57.992C606.222 55.816 608.366 54.12 610.99 52.904C613.614 51.688 616.494 51.08 619.63 51.08C624.046 51.08 627.95 52.136 631.342 54.248C634.798 56.36 637.486 59.24 639.406 62.888C641.39 66.536 642.382 70.696 642.382 75.368C642.382 80.04 641.39 84.2 639.406 87.848C637.486 91.496 634.798 94.376 631.342 96.488C627.95 98.6 624.046 99.656 619.63 99.656ZM592.75 98.696V29H607.438V63.464L605.038 74.792L607.246 86.12V98.696H592.75ZM617.038 86.408C619.086 86.408 620.878 85.928 622.414 84.968C624.014 84.008 625.262 82.696 626.158 81.032C627.054 79.368 627.502 77.48 627.502 75.368C627.502 73.192 627.054 71.272 626.158 69.608C625.262 67.944 624.014 66.664 622.414 65.768C620.878 64.808 619.086 64.328 617.038 64.328C614.99 64.328 613.166 64.808 611.566 65.768C609.966 66.664 608.718 67.944 607.822 69.608C606.99 71.272 606.574 73.192 606.574 75.368C606.574 77.544 607.022 79.464 607.918 81.128C608.814 82.792 610.03 84.104 611.566 85.064C613.166 85.96 614.99 86.408 617.038 86.408Z" fill="white"/>
<path d="M672.883 99.752C667.827 99.752 663.315 98.728 659.347 96.68C655.443 94.568 652.371 91.656 650.131 87.944C647.891 84.232 646.771 80.04 646.771 75.368C646.771 70.696 647.859 66.536 650.035 62.888C652.275 59.176 655.283 56.264 659.059 54.152C662.835 52.04 667.091 50.984 671.827 50.984C676.435 50.984 680.499 51.976 684.019 53.96C687.539 55.944 690.291 58.696 692.275 62.216C694.323 65.736 695.347 69.768 695.347 74.312C695.347 75.144 695.283 76.04 695.155 77C695.091 77.896 694.931 78.952 694.675 80.168L654.451 80.264V70.184L688.435 70.088L682.099 74.312C682.035 71.624 681.619 69.416 680.851 67.688C680.083 65.896 678.931 64.552 677.395 63.656C675.923 62.696 674.099 62.216 671.923 62.216C669.619 62.216 667.603 62.76 665.875 63.848C664.211 64.872 662.899 66.344 661.939 68.264C661.043 70.184 660.595 72.52 660.595 75.272C660.595 78.024 661.075 80.392 662.035 82.376C663.059 84.296 664.467 85.8 666.259 86.888C668.115 87.912 670.291 88.424 672.787 88.424C675.091 88.424 677.171 88.04 679.027 87.272C680.883 86.44 682.515 85.224 683.923 83.624L691.987 91.688C689.683 94.376 686.899 96.392 683.635 97.736C680.371 99.08 676.787 99.752 672.883 99.752Z" fill="white"/>
<path d="M702.437 98.696V52.04H717.125V98.696H702.437ZM717.125 73.064L710.981 68.264C712.197 62.824 714.245 58.6 717.125 55.592C720.005 52.584 724.005 51.08 729.125 51.08C731.365 51.08 733.317 51.432 734.981 52.136C736.709 52.776 738.213 53.8 739.493 55.208L730.757 66.248C730.117 65.544 729.317 65 728.357 64.616C727.397 64.232 726.309 64.04 725.093 64.04C722.661 64.04 720.709 64.808 719.237 66.344C717.829 67.816 717.125 70.056 717.125 73.064Z" fill="white"/>
<path d="M743.406 98.696V52.04H758.094V98.696H743.406ZM750.798 45.608C748.494 45.608 746.574 44.84 745.038 43.304C743.566 41.704 742.83 39.784 742.83 37.544C742.83 35.24 743.566 33.32 745.038 31.784C746.574 30.248 748.494 29.48 750.798 29.48C753.102 29.48 754.99 30.248 756.462 31.784C757.934 33.32 758.67 35.24 758.67 37.544C758.67 39.784 757.934 41.704 756.462 43.304C754.99 44.84 753.102 45.608 750.798 45.608Z" fill="white"/>
<path d="M791.477 99.752C786.421 99.752 781.909 98.728 777.941 96.68C774.037 94.568 770.965 91.656 768.725 87.944C766.485 84.232 765.365 80.04 765.365 75.368C765.365 70.696 766.453 66.536 768.629 62.888C770.869 59.176 773.877 56.264 777.653 54.152C781.429 52.04 785.685 50.984 790.421 50.984C795.029 50.984 799.093 51.976 802.613 53.96C806.133 55.944 808.885 58.696 810.869 62.216C812.917 65.736 813.941 69.768 813.941 74.312C813.941 75.144 813.877 76.04 813.749 77C813.685 77.896 813.525 78.952 813.269 80.168L773.045 80.264V70.184L807.029 70.088L800.693 74.312C800.629 71.624 800.213 69.416 799.445 67.688C798.677 65.896 797.525 64.552 795.989 63.656C794.517 62.696 792.693 62.216 790.517 62.216C788.213 62.216 786.197 62.76 784.469 63.848C782.805 64.872 781.493 66.344 780.533 68.264C779.637 70.184 779.189 72.52 779.189 75.272C779.189 78.024 779.669 80.392 780.629 82.376C781.653 84.296 783.061 85.8 784.853 86.888C786.709 87.912 788.885 88.424 791.381 88.424C793.685 88.424 795.765 88.04 797.621 87.272C799.477 86.44 801.109 85.224 802.517 83.624L810.581 91.688C808.277 94.376 805.493 96.392 802.229 97.736C798.965 99.08 795.381 99.752 791.477 99.752Z" fill="white"/>
<path d="M63.7549 1.82716C66.1128 -0.609045 70.02 -0.60906 72.3779 1.82716L134.432 65.9492C138.116 69.7565 135.418 76.1221 130.12 76.1221H115.013C115.048 76.8677 115.066 77.6178 115.066 78.3721V123.372C115.066 126.686 112.38 129.372 109.066 129.372H27.0664C23.7528 129.372 21.0664 126.686 21.0664 123.372V78.3721C21.0664 77.6178 21.085 76.8677 21.1201 76.1221H6.01171C0.713996 76.1216 -1.98402 69.7563 1.70019 65.9492L63.7549 1.82716ZM28.0664 9.37208C30.8278 9.37209 33.0663 11.6107 33.0664 14.3721V25.0469L11.1914 47.6504C11.1102 47.293 11.0664 46.9211 11.0664 46.5391V14.3721C11.0665 11.6107 13.305 9.37208 16.0664 9.37208H28.0664Z" fill="#56AFF4"/>
<path d="M80.6406 60.8685C77.2631 56.9678 73.4617 53.4552 69.3066 50.3959C68.9388 50.1382 68.5006 50 68.0516 50C67.6025 50 67.1643 50.1382 66.7965 50.3959C62.6491 53.4565 58.8551 56.969 55.4844 60.8685C47.9676 69.5009 44 78.6009 44 87.1869C44 93.5687 46.5351 99.6891 51.0477 104.202C55.5603 108.714 61.6807 111.249 68.0625 111.249C74.4443 111.249 80.5647 108.714 85.0773 104.202C89.5899 99.6891 92.125 93.5687 92.125 87.1869C92.125 78.6009 88.1574 69.5009 80.6406 60.8685ZM83.334 89.7408C82.7668 92.9091 81.2424 95.8276 78.9662 98.1033C76.69 100.379 73.7712 101.903 70.6027 102.469C70.4861 102.488 70.3682 102.498 70.25 102.499C69.7013 102.499 69.1727 102.293 68.769 101.921C68.3653 101.55 68.116 101.04 68.0706 100.493C68.0252 99.9462 68.1869 99.4022 68.5237 98.9691C68.8606 98.5359 69.3479 98.2451 69.8891 98.1545C74.4199 97.3916 78.2645 93.547 79.0328 89.008C79.13 88.4358 79.4505 87.9257 79.9238 87.5898C80.3971 87.2539 80.9845 87.1198 81.5566 87.217C82.1288 87.3141 82.639 87.6346 82.9748 88.1079C83.3107 88.5813 83.4448 89.1686 83.3477 89.7408H83.334Z" fill="white"/>
</svg>
