<svg width="907" height="200" viewBox="0 0 907 200" fill="none" xmlns="http://www.w3.org/2000/svg">
<path d="M282.216 134.696V67.88H297.288V134.696H282.216ZM261 80.072V66.92H318.504V80.072H261Z" fill="white"/>
<path d="M355.518 135.752C350.462 135.752 345.758 134.888 341.406 133.16C337.118 131.368 333.342 128.872 330.078 125.672C326.878 122.472 324.382 118.76 322.59 114.536C320.798 110.248 319.902 105.64 319.902 100.712C319.902 95.784 320.798 91.208 322.59 86.984C324.382 82.696 326.878 78.984 330.078 75.848C333.278 72.712 337.022 70.28 341.31 68.552C345.662 66.76 350.366 65.864 355.422 65.864C360.798 65.864 365.566 66.728 369.726 68.456C373.95 70.184 377.63 72.552 380.766 75.56L370.686 85.736C368.894 83.816 366.718 82.312 364.158 81.224C361.662 80.136 358.75 79.592 355.422 79.592C352.478 79.592 349.758 80.104 347.262 81.128C344.83 82.088 342.718 83.496 340.926 85.352C339.198 87.208 337.822 89.448 336.798 92.072C335.838 94.696 335.358 97.576 335.358 100.712C335.358 103.912 335.838 106.824 336.798 109.448C337.822 112.072 339.198 114.312 340.926 116.168C342.718 118.024 344.83 119.464 347.262 120.488C349.758 121.512 352.478 122.024 355.422 122.024C358.878 122.024 361.886 121.48 364.446 120.392C367.006 119.304 369.214 117.8 371.07 115.88L381.246 126.056C377.982 129.064 374.238 131.432 370.014 133.16C365.854 134.888 361.022 135.752 355.518 135.752Z" fill="white"/>
<path d="M408.773 135.752C403.205 135.752 398.404 134.856 394.372 133.064C390.404 131.208 386.756 128.424 383.428 124.712L393.221 115.016C395.397 117.512 397.797 119.464 400.421 120.872C403.109 122.216 406.212 122.888 409.732 122.888C412.932 122.888 415.396 122.312 417.124 121.16C418.916 120.008 419.812 118.408 419.812 116.36C419.812 114.504 419.237 113 418.085 111.848C416.933 110.696 415.397 109.704 413.477 108.872C411.621 108.04 409.54 107.24 407.236 106.472C404.996 105.704 402.756 104.84 400.516 103.88C398.276 102.856 396.197 101.608 394.277 100.136C392.421 98.6 390.916 96.712 389.764 94.472C388.612 92.168 388.036 89.288 388.036 85.832C388.036 81.672 389.028 78.088 391.012 75.08C393.06 72.072 395.876 69.8 399.46 68.264C403.044 66.664 407.172 65.864 411.844 65.864C416.58 65.864 420.901 66.696 424.805 68.36C428.773 70.024 432.036 72.296 434.596 75.176L424.805 84.872C422.757 82.76 420.676 81.192 418.564 80.168C416.516 79.144 414.181 78.632 411.557 78.632C408.933 78.632 406.852 79.144 405.316 80.168C403.78 81.128 403.012 82.536 403.012 84.392C403.012 86.12 403.588 87.528 404.74 88.616C405.892 89.64 407.397 90.536 409.253 91.304C411.173 92.072 413.253 92.84 415.493 93.608C417.797 94.376 420.069 95.272 422.309 96.296C424.549 97.32 426.597 98.632 428.452 100.232C430.373 101.768 431.909 103.752 433.061 106.184C434.212 108.552 434.788 111.496 434.788 115.016C434.788 121.48 432.484 126.568 427.876 130.28C423.268 133.928 416.901 135.752 408.773 135.752Z" fill="white"/>
<path d="M474.191 110.024V98.312H488.783C490.639 98.312 492.334 97.928 493.87 97.16C495.406 96.392 496.623 95.272 497.519 93.8C498.415 92.328 498.863 90.536 498.863 88.424C498.863 86.376 498.415 84.616 497.519 83.144C496.623 81.672 495.406 80.552 493.87 79.784C492.334 79.016 490.639 78.632 488.783 78.632H474.191V66.92H490.99C495.278 66.92 499.151 67.784 502.607 69.512C506.063 71.24 508.782 73.736 510.766 77C512.814 80.2 513.839 84.008 513.839 88.424C513.839 92.84 512.814 96.68 510.766 99.944C508.782 103.144 506.063 105.64 502.607 107.432C499.151 109.16 495.278 110.024 490.99 110.024H474.191ZM462.671 134.696V66.92H477.743V134.696H462.671Z" fill="white"/>
<path d="M521.608 134.696V65H536.296V134.696H521.608Z" fill="white"/>
<path d="M569.103 135.752C564.303 135.752 559.951 134.696 556.047 132.584C552.207 130.408 549.167 127.464 546.927 123.752C544.687 120.04 543.567 115.88 543.567 111.272C543.567 106.664 544.687 102.536 546.927 98.888C549.167 95.24 552.207 92.36 556.047 90.248C559.887 88.072 564.239 86.984 569.103 86.984C573.967 86.984 578.319 88.04 582.159 90.152C585.999 92.264 589.039 95.176 591.279 98.888C593.519 102.536 594.639 106.664 594.639 111.272C594.639 115.88 593.519 120.04 591.279 123.752C589.039 127.464 585.999 130.408 582.159 132.584C578.319 134.696 573.967 135.752 569.103 135.752ZM569.103 122.408C571.215 122.408 573.071 121.96 574.671 121.064C576.271 120.104 577.487 118.792 578.319 117.128C579.215 115.4 579.663 113.448 579.663 111.272C579.663 109.096 579.215 107.208 578.319 105.608C577.423 103.944 576.175 102.664 574.575 101.768C573.039 100.808 571.215 100.328 569.103 100.328C567.055 100.328 565.231 100.808 563.631 101.768C562.031 102.664 560.783 103.944 559.887 105.608C558.991 107.272 558.543 109.192 558.543 111.368C558.543 113.48 558.991 115.4 559.887 117.128C560.783 118.792 562.031 120.104 563.631 121.064C565.231 121.96 567.055 122.408 569.103 122.408Z" fill="white"/>
<path d="M601.952 134.696V88.04H616.639V134.696H601.952ZM631.807 134.696V107.432C631.807 105.064 631.071 103.24 629.599 101.96C628.191 100.616 626.431 99.944 624.319 99.944C622.847 99.944 621.536 100.264 620.384 100.904C619.232 101.48 618.303 102.312 617.599 103.4C616.959 104.488 616.639 105.832 616.639 107.432L610.975 104.936C610.975 101.224 611.775 98.056 613.375 95.432C614.975 92.744 617.152 90.696 619.904 89.288C622.656 87.816 625.76 87.08 629.216 87.08C632.48 87.08 635.392 87.816 637.952 89.288C640.576 90.76 642.655 92.808 644.191 95.432C645.727 98.056 646.496 101.192 646.496 104.84V134.696H631.807ZM661.664 134.696V107.432C661.664 105.064 660.928 103.24 659.456 101.96C658.048 100.616 656.288 99.944 654.176 99.944C652.704 99.944 651.392 100.264 650.24 100.904C649.088 101.48 648.16 102.312 647.456 103.4C646.816 104.488 646.496 105.832 646.496 107.432L638.047 106.28C638.175 102.312 639.104 98.92 640.832 96.104C642.624 93.224 644.96 91.016 647.84 89.48C650.784 87.88 654.08 87.08 657.728 87.08C661.312 87.08 664.48 87.848 667.232 89.384C670.048 90.856 672.256 93 673.855 95.816C675.52 98.568 676.352 101.896 676.352 105.8V134.696H661.664Z" fill="white"/>
<path d="M712.644 135.656C709.508 135.656 706.628 135.016 704.004 133.736C701.38 132.392 699.236 130.632 697.572 128.456C695.908 126.216 694.948 123.72 694.692 120.968V101.288C694.948 98.536 695.908 96.104 697.572 93.992C699.236 91.816 701.38 90.12 704.004 88.904C706.628 87.688 709.508 87.08 712.644 87.08C717.06 87.08 720.964 88.136 724.356 90.248C727.812 92.36 730.5 95.24 732.42 98.888C734.404 102.536 735.396 106.696 735.396 111.368C735.396 116.04 734.404 120.2 732.42 123.848C730.5 127.496 727.812 130.376 724.356 132.488C720.964 134.6 717.06 135.656 712.644 135.656ZM685.764 134.696V65H700.452V99.464L698.052 110.792L700.26 122.12V134.696H685.764ZM710.052 122.408C712.1 122.408 713.892 121.928 715.428 120.968C717.028 120.008 718.276 118.696 719.172 117.032C720.068 115.368 720.516 113.48 720.516 111.368C720.516 109.192 720.068 107.272 719.172 105.608C718.276 103.944 717.028 102.664 715.428 101.768C713.892 100.808 712.1 100.328 710.052 100.328C708.004 100.328 706.18 100.808 704.58 101.768C702.98 102.664 701.732 103.944 700.836 105.608C700.004 107.272 699.588 109.192 699.588 111.368C699.588 113.544 700.036 115.464 700.932 117.128C701.828 118.792 703.044 120.104 704.58 121.064C706.18 121.96 708.004 122.408 710.052 122.408Z" fill="white"/>
<path d="M765.898 135.752C760.842 135.752 756.33 134.728 752.362 132.68C748.458 130.568 745.386 127.656 743.146 123.944C740.906 120.232 739.786 116.04 739.786 111.368C739.786 106.696 740.874 102.536 743.05 98.888C745.29 95.176 748.298 92.264 752.074 90.152C755.85 88.04 760.106 86.984 764.842 86.984C769.45 86.984 773.514 87.976 777.034 89.96C780.554 91.944 783.306 94.696 785.29 98.216C787.338 101.736 788.362 105.768 788.362 110.312C788.362 111.144 788.298 112.04 788.17 113C788.106 113.896 787.946 114.952 787.69 116.168L747.466 116.264V106.184L781.45 106.088L775.114 110.312C775.05 107.624 774.634 105.416 773.866 103.688C773.098 101.896 771.946 100.552 770.41 99.656C768.938 98.696 767.114 98.216 764.938 98.216C762.634 98.216 760.618 98.76 758.89 99.848C757.226 100.872 755.914 102.344 754.954 104.264C754.058 106.184 753.61 108.52 753.61 111.272C753.61 114.024 754.09 116.392 755.05 118.376C756.074 120.296 757.482 121.8 759.274 122.888C761.13 123.912 763.306 124.424 765.802 124.424C768.106 124.424 770.186 124.04 772.042 123.272C773.898 122.44 775.53 121.224 776.938 119.624L785.002 127.688C782.698 130.376 779.914 132.392 776.65 133.736C773.386 135.08 769.802 135.752 765.898 135.752Z" fill="white"/>
<path d="M795.451 134.696V88.04H810.14V134.696H795.451ZM810.14 109.064L803.995 104.264C805.211 98.824 807.26 94.6 810.14 91.592C813.02 88.584 817.02 87.08 822.14 87.08C824.38 87.08 826.331 87.432 827.995 88.136C829.723 88.776 831.228 89.8 832.508 91.208L823.771 102.248C823.131 101.544 822.332 101 821.372 100.616C820.412 100.232 819.323 100.04 818.107 100.04C815.675 100.04 813.724 100.808 812.252 102.344C810.844 103.816 810.14 106.056 810.14 109.064Z" fill="white"/>
<path d="M836.42 134.696V88.04H851.108V134.696H836.42ZM843.812 81.608C841.508 81.608 839.588 80.84 838.052 79.304C836.58 77.704 835.844 75.784 835.844 73.544C835.844 71.24 836.58 69.32 838.052 67.784C839.588 66.248 841.508 65.48 843.812 65.48C846.116 65.48 848.004 66.248 849.476 67.784C850.948 69.32 851.684 71.24 851.684 73.544C851.684 75.784 850.948 77.704 849.476 79.304C848.004 80.84 846.116 81.608 843.812 81.608Z" fill="white"/>
<path d="M884.492 135.752C879.436 135.752 874.924 134.728 870.956 132.68C867.052 130.568 863.98 127.656 861.74 123.944C859.5 120.232 858.38 116.04 858.38 111.368C858.38 106.696 859.467 102.536 861.643 98.888C863.883 95.176 866.891 92.264 870.667 90.152C874.443 88.04 878.699 86.984 883.435 86.984C888.043 86.984 892.108 87.976 895.628 89.96C899.148 91.944 901.899 94.696 903.883 98.216C905.931 101.736 906.956 105.768 906.956 110.312C906.956 111.144 906.891 112.04 906.763 113C906.699 113.896 906.54 114.952 906.284 116.168L866.06 116.264V106.184L900.044 106.088L893.708 110.312C893.644 107.624 893.227 105.416 892.459 103.688C891.691 101.896 890.539 100.552 889.003 99.656C887.531 98.696 885.707 98.216 883.531 98.216C881.227 98.216 879.212 98.76 877.484 99.848C875.82 100.872 874.507 102.344 873.547 104.264C872.651 106.184 872.203 108.52 872.203 111.272C872.203 114.024 872.683 116.392 873.643 118.376C874.667 120.296 876.075 121.8 877.867 122.888C879.723 123.912 881.9 124.424 884.396 124.424C886.7 124.424 888.779 124.04 890.635 123.272C892.491 122.44 894.123 121.224 895.531 119.624L903.596 127.688C901.292 130.376 898.508 132.392 895.244 133.736C891.98 135.08 888.396 135.752 884.492 135.752Z" fill="white"/>
<g clip-path="url(#clip0_52_49)">
<path d="M155.304 165.608C155.071 166.222 154.838 166.849 154.592 167.451C154.101 168.667 153.574 169.859 153.009 171.027C152.751 171.555 152.481 172.071 152.224 172.587C151.585 173.779 150.923 174.946 150.223 176.077C149.941 176.519 149.646 176.974 149.352 177.416C149.057 177.846 148.762 178.288 148.456 178.718C148.247 179.013 148.038 179.308 147.817 179.603C147.547 179.984 147.265 180.365 146.971 180.733C143.878 184.715 140.257 188.18 136.219 191.03C135.274 191.694 134.305 192.333 133.311 192.922C133.188 192.996 133.065 193.07 132.942 193.144C132.574 193.365 132.206 193.574 131.838 193.783C131.826 193.795 131.801 193.795 131.789 193.807C131.543 193.942 131.298 194.09 131.028 194.213C130.66 194.421 130.279 194.618 129.899 194.802C129.359 195.073 128.819 195.331 128.266 195.576C128.217 195.601 128.156 195.626 128.107 195.65C127.579 195.896 127.039 196.117 126.499 196.338C126.413 196.375 126.315 196.412 126.229 196.449C125.787 196.633 125.333 196.805 124.879 196.965C124.449 197.125 124.02 197.272 123.59 197.42C123.504 197.444 123.418 197.481 123.333 197.506C123.038 197.604 122.743 197.702 122.437 197.788C122.412 197.8 122.375 197.8 122.351 197.813C122.056 197.899 121.774 197.985 121.479 198.071C121.283 198.132 121.087 198.181 120.89 198.231C120.522 198.341 120.154 198.439 119.773 198.525C119.761 198.525 119.749 198.538 119.737 198.538C119.307 198.636 118.841 198.747 118.411 198.845L117.27 199.078C116.693 199.189 116.104 199.287 115.515 199.386C114.876 199.496 114.226 199.582 113.575 199.656C112.925 199.742 112.262 199.803 111.599 199.852C110.937 199.902 110.274 199.951 109.611 199.975C109.218 199.975 108.826 200 108.445 200C106.825 200 105.217 199.852 103.622 199.594L109.059 195.073C110.286 193.746 111.501 192.419 112.692 191.055C113.269 190.404 113.833 189.74 114.398 189.077C114.975 188.401 115.539 187.713 116.104 187.012C116.521 186.508 116.926 186.005 117.331 185.489C118.571 183.891 119.786 182.269 120.939 180.598C121.443 179.873 121.946 179.124 122.437 178.374C128.463 177.785 133.74 175.216 136.526 169.638C139.656 163.359 137.41 156.822 133.127 151.735L128.119 164.281C127.923 164.772 127.505 165.153 126.99 165.288C126.622 165.387 126.241 165.313 125.873 165.202C123.578 164.514 119.872 163.052 118.276 162.266C116.423 161.344 117.27 160.373 117.441 159.612L121.737 147.754C121.516 147.742 121.308 147.742 121.111 147.742C120.743 147.742 120.387 147.754 120.043 147.779C119.602 147.804 119.172 147.84 118.755 147.902C118.436 147.951 118.129 148 117.822 148.062C117.699 148.086 117.576 148.111 117.454 148.148C117.159 148.209 116.877 148.283 116.595 148.369C116.251 148.467 115.92 148.578 115.601 148.713C115.269 148.836 114.95 148.971 114.643 149.118C114.398 149.229 114.165 149.352 113.931 149.487C113.821 149.548 113.71 149.61 113.6 149.684C113.355 149.819 113.134 149.966 112.9 150.126C112.545 150.372 112.201 150.642 111.869 150.925C111.685 151.084 111.501 151.256 111.329 151.428C111.158 151.588 110.986 151.772 110.826 151.944C110.667 152.116 110.519 152.288 110.372 152.46C110.213 152.669 110.053 152.866 109.906 153.087C109.759 153.284 109.624 153.48 109.488 153.689C109.403 153.824 109.317 153.959 109.243 154.095C109.169 154.218 109.096 154.34 109.034 154.463C108.826 154.844 108.629 155.25 108.458 155.655C108.359 155.889 108.273 156.122 108.188 156.355C108.126 156.528 108.053 156.724 108.003 156.908C107.942 157.093 107.893 157.265 107.844 157.449C107.795 157.597 107.77 157.732 107.733 157.879C107.697 158.014 107.672 158.162 107.635 158.309C107.598 158.457 107.574 158.592 107.549 158.739C107.488 159.083 107.427 159.427 107.39 159.784C107.39 159.808 107.378 159.833 107.39 159.857C107.341 160.214 107.316 160.558 107.304 160.914C107.292 161.184 107.279 161.455 107.279 161.725C107.279 162.155 107.292 162.585 107.328 163.027C107.341 163.249 107.365 163.47 107.39 163.691C107.463 164.355 107.574 165.018 107.709 165.694C107.807 166.148 107.918 166.603 108.053 167.058C108.47 168.508 109.857 170.658 110.102 171.936C110.2 172.501 109.979 172.808 109.734 173.263C109.083 174.098 108.421 174.922 107.746 175.745C107.5 176.04 107.267 176.335 107.022 176.617C106.788 176.912 106.543 177.207 106.285 177.49C106.064 177.748 105.843 178.006 105.622 178.264C104.984 179.001 104.334 179.726 103.671 180.451C102.959 181.225 102.247 181.974 101.511 182.724C100.836 183.424 100.149 184.112 99.4491 184.776C99.2282 184.997 98.995 185.218 98.7741 185.427C98.3322 185.845 97.8904 186.25 97.4486 186.656C97.3995 186.693 97.3627 186.742 97.3136 186.779C97.0558 187.012 96.7981 187.246 96.5281 187.479C95.939 188.008 95.3253 188.536 94.7117 189.052C94.5889 189.15 94.4662 189.249 94.3435 189.347C93.7789 189.826 93.1898 190.293 92.6007 190.76C92.4657 190.87 92.3307 190.969 92.1957 191.079H92.1834C91.1279 191.903 90.0601 192.689 88.9678 193.451L88.4033 193.266C88.0474 192.763 87.6792 192.259 87.3355 191.743C87.1882 191.522 87.041 191.301 86.8937 191.079C86.8323 190.993 86.7832 190.907 86.7219 190.821C86.4764 190.44 86.2187 190.047 85.9855 189.654C85.3841 188.683 84.8195 187.688 84.2918 186.68C84.0831 186.275 83.8745 185.87 83.6659 185.452C83.5922 185.292 83.5186 185.132 83.4327 184.973C83.1995 184.481 82.9786 183.977 82.7576 183.474C82.549 182.994 82.3526 182.503 82.1685 182.024C81.7512 180.967 81.3831 179.91 81.0762 178.841C80.9658 178.485 80.8676 178.141 80.7817 177.785C80.6835 177.44 80.5976 177.084 80.5117 176.74C80.4258 176.396 80.3398 176.052 80.2662 175.708C80.1557 175.192 80.0453 174.676 79.9594 174.172C79.8612 173.656 79.7875 173.152 79.7139 172.648C79.6648 172.317 79.628 171.973 79.5912 171.641C79.5544 171.309 79.5175 170.977 79.493 170.646C79.4194 169.736 79.3825 168.827 79.3825 167.918C79.3825 167.525 79.3948 167.144 79.4194 166.763C79.4071 166.689 79.4194 166.615 79.4194 166.542C79.4439 166.222 79.4562 165.89 79.493 165.559C79.5544 164.809 79.6525 164.06 79.7753 163.31C79.8244 162.991 79.8857 162.683 79.9594 162.364C80.0085 162.081 80.0698 161.799 80.1435 161.528C80.2048 161.234 80.2785 160.939 80.3644 160.644C80.4626 160.275 80.573 159.907 80.6835 159.538C80.8185 159.096 80.978 158.666 81.1376 158.223C81.2481 157.904 81.3585 157.609 81.4935 157.302C81.5672 157.105 81.6531 156.908 81.739 156.712C81.8617 156.405 82.009 156.085 82.1563 155.778C82.2422 155.594 82.3281 155.422 82.414 155.237C82.4263 155.213 82.4385 155.2 82.4508 155.176C82.5613 154.942 82.6717 154.709 82.7945 154.488C82.8926 154.291 83.0031 154.082 83.1136 153.886C83.2854 153.566 83.4572 153.259 83.6413 152.94C92.0116 138.6 110.704 135.258 117.699 120.329C124.13 106.617 123.406 92.9409 122.473 78.319C122.412 77.5326 121.958 76.7954 122.093 75.9721C122.105 75.9598 122.118 75.9598 122.13 75.9598C122.326 75.9598 123.32 76.6602 123.553 76.8691C133.102 84.9664 137.496 106.666 135.409 118.486C134.562 123.266 130.39 131.105 134.207 135.074C135.066 135.959 135.986 136.327 136.931 136.327C137.091 136.327 137.263 136.315 137.422 136.29C137.471 136.29 137.52 136.278 137.557 136.278C137.704 136.254 137.864 136.217 138.024 136.167C138.183 136.131 138.33 136.081 138.478 136.02C138.686 135.934 138.895 135.848 139.104 135.737C139.312 135.627 139.509 135.516 139.705 135.381C139.901 135.258 140.098 135.111 140.294 134.963C140.49 134.816 140.687 134.656 140.883 134.496C140.969 134.41 141.067 134.324 141.153 134.238C141.251 134.152 141.35 134.054 141.435 133.968C141.705 133.71 141.975 133.427 142.221 133.12C142.405 132.924 142.565 132.727 142.712 132.53C142.798 132.432 142.871 132.334 142.945 132.236C143.105 132.027 143.252 131.83 143.387 131.621C143.522 131.412 143.657 131.203 143.792 131.007C143.915 130.798 144.037 130.601 144.148 130.405C144.43 129.913 144.651 129.434 144.823 129.004C146.627 124.445 146.615 119.887 146.001 115.119C151.966 121.263 156.09 129.84 157.857 138.232C159.857 147.791 158.667 156.503 155.329 165.608H155.304Z" fill="#56AFF4"/>
<path d="M74.9151 157.351C74.2524 159.366 73.786 161.393 73.5283 163.482C73.9578 163.998 74.4365 164.502 75.001 164.969C75.0379 164.993 75.0624 165.03 75.0992 165.067C75.136 165.104 75.1729 165.141 75.1974 165.165C75.2588 165.239 75.3201 165.301 75.3692 165.35C75.492 165.46 75.627 165.546 75.8356 165.546C75.9092 165.546 75.9829 165.534 76.0811 165.509C75.4674 162.868 75.0256 160.115 74.9151 157.351ZM107.365 163.691C107.427 164.354 107.537 165.018 107.684 165.694C107.549 165.018 107.439 164.354 107.365 163.691ZM81.0517 178.841C81.3585 179.91 81.7267 180.967 82.144 182.024C81.739 180.979 81.3708 179.91 81.0517 178.841Z" fill="#56AFF4"/>
<path d="M113.011 101.345C114.68 108.386 111.219 115.377 106.69 120.575C99.0686 129.311 87.716 131.806 79.8735 140.849C75.8724 145.469 74.6574 151.404 74.9151 157.351C75.0256 160.115 75.4674 162.868 76.0811 165.51C75.9829 165.534 75.9092 165.546 75.8356 165.546C75.627 165.546 75.492 165.46 75.3692 165.35C75.3201 165.301 75.2588 165.239 75.1974 165.166C75.1729 165.141 75.136 165.104 75.0992 165.067C75.0624 165.03 75.0379 164.994 75.001 164.969C74.4365 164.502 73.9578 163.998 73.5283 163.482C72.2641 161.959 71.3927 160.238 70.1041 158.629C69.6868 159.059 69.1958 159.415 68.9136 159.98C67.4776 162.88 68.5945 168.176 69.4659 171.235C71.2332 177.416 74.8415 183.338 78.2534 188.72C78.2289 188.745 78.192 188.757 78.1307 188.757C77.7379 188.757 76.6702 188.069 75.7251 187.406C75.5165 187.246 75.3079 187.098 75.1238 186.963C74.6451 186.607 74.2524 186.312 74.0928 186.177C59.0828 174.504 50.6512 153.001 55.6218 134.337C62.777 107.428 81.4935 94.2065 95.939 72.458C99.4245 67.2114 106.506 53.978 106.506 47.8712V42.2559C106.678 42.219 106.801 42.1945 106.899 42.1945C107.083 42.1945 107.144 42.2682 107.181 42.3665C107.193 42.4156 107.206 42.4771 107.218 42.5385C107.243 42.5999 107.255 42.6614 107.304 42.7228C110.974 47.7729 113.269 56.2388 114.079 62.407C115.171 70.6764 116.018 84.2292 110.483 91.0118C107.733 94.3908 99.3877 99.3426 98.6022 103.053C98.4795 103.668 98.4181 104.221 98.4181 104.724C98.4181 107.501 100.284 108.619 102.64 108.619C104.739 108.619 107.243 107.735 109.169 106.371C109.525 106.113 109.857 105.855 110.164 105.572C110.63 105.154 111.047 104.712 111.379 104.233L113.011 101.345Z" fill="#F54816"/>
<path d="M53.3022 169.098C52.6885 167.746 52.1239 166.382 51.6085 164.994C47.632 154.144 46.9692 142.999 49.6939 132.752C54.824 113.449 65.6121 100.572 76.0442 88.1368C81.0517 82.1529 86.2309 75.9847 90.8211 69.0547C95.0308 62.7267 100.37 51.4839 100.37 47.8714V41.1011C100.37 39.3072 101.413 37.6361 103.07 36.948C104.518 36.3459 105.757 36.051 106.899 36.051C109.488 36.051 111.71 37.5132 112.741 39.7864C116.889 45.8931 119.295 54.9734 120.166 61.5963C120.547 64.5329 120.804 67.3099 120.927 69.9393C121.308 69.8533 121.713 69.8165 122.105 69.8165C122.756 69.8165 124.707 69.8165 127.493 72.1756C137.054 80.2852 141.669 97.3154 142 110.438C142.393 110.106 142.822 109.824 143.301 109.59C144.148 109.185 145.068 108.976 145.964 108.976C147.584 108.976 149.18 109.627 150.37 110.831C156.826 117.479 161.735 127.001 163.834 136.966C165.945 147.017 165.061 156.786 161.06 167.721C160.741 168.582 160.397 169.417 160.054 170.253C178.353 172.01 195.83 174.565 212.227 177.797C212.718 176.126 213 174.369 213 172.538V68.4157C213 61.7806 209.441 55.6615 203.685 52.3808L115.821 2.40848C110.065 -0.872226 102.984 -0.798502 97.289 2.60507L8.97165 55.3912C3.41193 58.7211 0 64.7295 0 71.2172V172.722C0 173.656 0.0859118 174.553 0.220916 175.45C16.9983 172.6 34.7697 170.449 53.2899 169.098H53.3022Z" fill="#FFCF51"/>
<path d="M33.1374 9.82983H47.2515C50.6389 9.82983 53.3881 12.5822 53.3881 15.9735V45.5244H27.0009V15.9735C27.0009 12.5822 29.75 9.82983 33.1374 9.82983Z" fill="#FFCF51"/>
</g>
<defs>
<clipPath id="clip0_52_49">
<rect width="213" height="200" fill="white"/>
</clipPath>
</defs>
</svg>
