<svg xmlns="http://www.w3.org/2000/svg" width="907" height="200" fill="none" viewBox="0 0 907 200"><path fill="#fff" d="M282.216 134.696V67.88h15.072v66.816zM261 80.072V66.92h57.504v13.152zm94.518 55.68q-7.584 0-14.112-2.592-6.432-2.688-11.328-7.488-4.8-4.8-7.488-11.136-2.688-6.432-2.688-13.824t2.688-13.728q2.688-6.432 7.488-11.136t11.232-7.296q6.528-2.688 14.112-2.688 8.064 0 14.304 2.592 6.336 2.592 11.04 7.104l-10.08 10.176q-2.688-2.88-6.528-4.512-3.744-1.632-8.736-1.632-4.416 0-8.16 1.536a17.8 17.8 0 0 0-6.336 4.224q-2.592 2.784-4.128 6.72-1.44 3.936-1.44 8.64 0 4.8 1.44 8.736 1.536 3.936 4.128 6.72a18.9 18.9 0 0 0 6.336 4.32q3.744 1.536 8.16 1.536 5.184 0 9.024-1.632t6.624-4.512l10.176 10.176q-4.896 4.512-11.232 7.104-6.24 2.592-14.496 2.592m53.255 0q-8.352 0-14.401-2.688-5.952-2.784-10.944-8.352l9.793-9.696q3.264 3.744 7.2 5.856 4.031 2.016 9.311 2.016 4.8 0 7.392-1.728 2.688-1.728 2.688-4.8 0-2.784-1.727-4.512t-4.608-2.976q-2.785-1.248-6.241-2.4a97 97 0 0 1-6.72-2.592 32.3 32.3 0 0 1-6.239-3.744q-2.785-2.304-4.513-5.664-1.728-3.456-1.728-8.64 0-6.24 2.976-10.752 3.072-4.512 8.448-6.816 5.376-2.4 12.384-2.4 7.104 0 12.961 2.496 5.951 2.496 9.791 6.816l-9.791 9.696q-3.073-3.168-6.241-4.704-3.072-1.536-7.007-1.536-3.937 0-6.241 1.536-2.304 1.44-2.304 4.224 0 2.592 1.728 4.224 1.728 1.536 4.513 2.688 2.88 1.152 6.24 2.304a68 68 0 0 1 6.816 2.688 25.7 25.7 0 0 1 6.143 3.936q2.881 2.304 4.609 5.952 1.727 3.552 1.727 8.832 0 9.696-6.912 15.264-6.911 5.472-19.103 5.472m65.418-25.728V98.312h14.592q2.783 0 5.087-1.152a8.8 8.8 0 0 0 3.649-3.36q1.344-2.208 1.344-5.376 0-3.072-1.344-5.28a8.8 8.8 0 0 0-3.649-3.36q-2.304-1.152-5.087-1.152h-14.592V66.92h16.799q6.433 0 11.617 2.592 5.183 2.592 8.159 7.488 3.073 4.8 3.073 11.424t-3.073 11.52q-2.976 4.8-8.159 7.488-5.185 2.592-11.617 2.592zm-11.52 24.672V66.92h15.072v67.776zm58.937 0V65h14.688v69.696zm47.495 1.056q-7.2 0-13.056-3.168-5.76-3.264-9.12-8.832t-3.36-12.48 3.36-12.384 9.12-8.64q5.76-3.264 13.056-3.264t13.056 3.168 9.12 8.736q3.36 5.472 3.36 12.384t-3.36 12.48-9.12 8.832q-5.76 3.168-13.056 3.168m0-13.344q3.168 0 5.568-1.344a9.4 9.4 0 0 0 3.648-3.936q1.344-2.592 1.344-5.856t-1.344-5.664q-1.344-2.496-3.744-3.84-2.304-1.44-5.472-1.44-3.072 0-5.472 1.44-2.4 1.344-3.744 3.84t-1.344 5.76q0 3.168 1.344 5.76a10.07 10.07 0 0 0 3.744 3.936q2.4 1.344 5.472 1.344m32.849 12.288V88.04h14.687v46.656zm29.855 0v-27.264q0-3.552-2.208-5.472-2.112-2.016-5.28-2.016-2.207 0-3.935.96a7 7 0 0 0-2.785 2.496q-.96 1.632-.96 4.032l-5.664-2.496q0-5.568 2.4-9.504 2.4-4.032 6.529-6.144 4.128-2.208 9.312-2.208 4.896 0 8.736 2.208 3.936 2.208 6.239 6.144t2.305 9.408v29.856zm29.857 0v-27.264q0-3.552-2.208-5.472-2.112-2.016-5.28-2.016-2.208 0-3.936.96a7 7 0 0 0-2.784 2.496q-.96 1.632-.96 4.032l-8.449-1.152q.192-5.952 2.785-10.176 2.688-4.32 7.008-6.624 4.416-2.4 9.888-2.4 5.376 0 9.504 2.304 4.224 2.208 6.623 6.432 2.497 4.128 2.497 9.984v28.896zm50.98.96q-4.704 0-8.64-1.92-3.936-2.016-6.432-5.28-2.496-3.36-2.88-7.488v-19.68q.384-4.128 2.88-7.296 2.496-3.264 6.432-5.088t8.64-1.824q6.624 0 11.712 3.168 5.184 3.168 8.064 8.64 2.976 5.472 2.976 12.48t-2.976 12.48q-2.88 5.472-8.064 8.64-5.088 3.168-11.712 3.168m-26.88-.96V65h14.688v34.464l-2.4 11.328 2.208 11.328v12.576zm24.288-12.288q3.072 0 5.376-1.44a10.07 10.07 0 0 0 3.744-3.936q1.344-2.496 1.344-5.664 0-3.264-1.344-5.76t-3.744-3.84q-2.304-1.44-5.376-1.44t-5.472 1.44q-2.4 1.344-3.744 3.84-1.248 2.496-1.248 5.76t1.344 5.76 3.648 3.936q2.4 1.344 5.472 1.344m55.846 13.344q-7.584 0-13.536-3.072-5.856-3.168-9.216-8.736t-3.36-12.576 3.264-12.48q3.36-5.568 9.024-8.736t12.768-3.168q6.912 0 12.192 2.976t8.256 8.256q3.072 5.28 3.072 12.096 0 1.248-.192 2.688-.096 1.344-.48 3.168l-40.224.096v-10.08l33.984-.096-6.336 4.224q-.096-4.032-1.248-6.624-1.152-2.688-3.456-4.032-2.208-1.44-5.472-1.44-3.456 0-6.048 1.632-2.496 1.536-3.936 4.416-1.344 2.88-1.344 7.008t1.44 7.104q1.536 2.88 4.224 4.512 2.784 1.536 6.528 1.536 3.456 0 6.24-1.152 2.784-1.248 4.896-3.648l8.064 8.064a21.8 21.8 0 0 1-8.352 6.048q-4.896 2.016-10.752 2.016m29.553-1.056V88.04h14.689v46.656zm14.689-25.632-6.145-4.8q1.824-8.16 6.145-12.672t12-4.512q3.36 0 5.855 1.056 2.592.96 4.513 3.072l-8.737 11.04q-.96-1.056-2.399-1.632t-3.265-.576q-3.648 0-5.855 2.304-2.112 2.208-2.112 6.72m26.28 25.632V88.04h14.688v46.656zm7.392-53.088q-3.456 0-5.76-2.304-2.208-2.4-2.208-5.76 0-3.456 2.208-5.76 2.304-2.304 5.76-2.304t5.664 2.304 2.208 5.76q0 3.36-2.208 5.76-2.208 2.304-5.664 2.304m40.68 54.144q-7.584 0-13.536-3.072-5.856-3.168-9.216-8.736t-3.36-12.576 3.263-12.48q3.36-5.568 9.024-8.736t12.768-3.168q6.912 0 12.193 2.976t8.255 8.256q3.072 5.28 3.073 12.096 0 1.248-.193 2.688-.095 1.344-.479 3.168l-40.224.096v-10.08l33.984-.096-6.336 4.224q-.096-4.032-1.249-6.624-1.152-2.688-3.456-4.032-2.208-1.44-5.472-1.44-3.455 0-6.047 1.632-2.496 1.536-3.937 4.416-1.344 2.88-1.344 7.008t1.44 7.104q1.536 2.88 4.224 4.512 2.784 1.536 6.529 1.536 3.456 0 6.239-1.152 2.784-1.248 4.896-3.648l8.065 8.064a21.8 21.8 0 0 1-8.352 6.048q-4.896 2.016-10.752 2.016"/><g clip-path="url(#a)"><path fill="#56aff4" d="M155.304 165.608c-.233.614-.466 1.241-.712 1.843a59 59 0 0 1-1.583 3.576c-.258.528-.528 1.044-.785 1.56a65 65 0 0 1-2.001 3.49c-.282.442-.577.897-.871 1.339-.295.43-.59.872-.896 1.302-.209.295-.418.59-.639.885-.27.381-.552.762-.846 1.13a50.5 50.5 0 0 1-10.752 10.297 45 45 0 0 1-2.908 1.892l-.369.222c-.368.221-.736.43-1.104.639-.012.012-.037.012-.049.024-.246.135-.491.283-.761.406-.368.208-.749.405-1.129.589-.54.271-1.08.529-1.633.774-.049.025-.11.05-.159.074a37 37 0 0 1-1.608.688c-.086.037-.184.074-.27.111a26 26 0 0 1-1.35.516c-.43.16-.859.307-1.289.455-.086.024-.172.061-.257.086-.295.098-.59.196-.896.282-.025.012-.062.012-.086.025-.295.086-.577.172-.872.258-.196.061-.392.11-.589.16-.368.11-.736.208-1.117.294-.012 0-.024.013-.036.013-.43.098-.896.209-1.326.307l-1.141.233c-.577.111-1.166.209-1.755.308-.639.11-1.289.196-1.94.27-.65.086-1.313.147-1.976.196-.662.05-1.325.099-1.988.123-.393 0-.785.025-1.166.025-1.62 0-3.228-.148-4.823-.406l5.437-4.521a190 190 0 0 0 3.633-4.018c.577-.651 1.141-1.315 1.706-1.978a95 95 0 0 0 1.706-2.065c.417-.504.822-1.007 1.227-1.523 1.24-1.598 2.455-3.22 3.608-4.891a97 97 0 0 0 1.498-2.224c6.026-.589 11.303-3.158 14.089-8.736 3.13-6.279.884-12.816-3.399-17.903l-5.008 12.546a1.69 1.69 0 0 1-1.129 1.007c-.368.099-.749.025-1.117-.086-2.295-.688-6.001-2.15-7.597-2.936-1.853-.922-1.006-1.893-.835-2.654l4.296-11.858c-.221-.012-.429-.012-.626-.012q-.552 0-1.068.037c-.441.025-.871.061-1.288.123-.319.049-.626.098-.933.16a4 4 0 0 0-.368.086 10 10 0 0 0-.859.221 9 9 0 0 0-.994.344 11 11 0 0 0-.958.405 8 8 0 0 0-.712.369c-.11.061-.221.123-.331.197a9 9 0 0 0-.7.442c-.355.246-.699.516-1.031.799-.184.159-.368.331-.54.503-.171.16-.343.344-.503.516s-.307.344-.454.516c-.159.209-.319.406-.466.627-.147.197-.282.393-.418.602-.085.135-.171.27-.245.406a13 13 0 0 0-.785 1.56c-.099.234-.185.467-.27.7-.062.173-.135.369-.185.553-.061.185-.11.357-.159.541-.049.148-.074.283-.111.43-.036.135-.061.283-.098.43a6 6 0 0 0-.086.43c-.061.344-.122.688-.159 1.045 0 .024-.012.049 0 .073-.049.357-.074.701-.086 1.057-.012.27-.025.541-.025.811 0 .43.013.86.049 1.302.013.222.037.443.062.664.073.664.184 1.327.319 2.003.098.454.209.909.344 1.364.417 1.45 1.804 3.6 2.049 4.878.098.565-.123.872-.368 1.327-.651.835-1.313 1.659-1.988 2.482-.246.295-.479.59-.724.872-.234.295-.479.59-.737.873l-.663.774a97 97 0 0 1-4.111 4.46c-.675.7-1.362 1.388-2.062 2.052-.22.221-.454.442-.675.651-.442.418-.884.823-1.325 1.229-.05.037-.086.086-.135.123-.258.233-.516.467-.786.7a74 74 0 0 1-1.816 1.573l-.368.295c-.565.479-1.154.946-1.743 1.413-.135.11-.27.209-.405.319h-.013a74 74 0 0 1-3.215 2.372l-.565-.185c-.356-.503-.724-1.007-1.068-1.523l-.441-.664c-.062-.086-.11-.172-.172-.258-.246-.381-.503-.774-.736-1.167a47 47 0 0 1-1.694-2.974c-.209-.405-.418-.81-.626-1.228-.074-.16-.147-.32-.233-.479-.234-.492-.454-.996-.675-1.499-.209-.48-.405-.971-.59-1.45a35 35 0 0 1-1.092-3.183c-.11-.356-.208-.7-.294-1.056-.099-.345-.184-.701-.27-1.045s-.172-.688-.246-1.032c-.11-.516-.22-1.032-.307-1.536a36 36 0 0 1-.245-1.524c-.05-.331-.086-.675-.123-1.007s-.073-.664-.098-.995a34 34 0 0 1-.11-2.728c0-.393.012-.774.036-1.155-.012-.074 0-.148 0-.221.025-.32.037-.652.074-.983.061-.75.16-1.499.282-2.249.05-.319.11-.627.184-.946.05-.283.11-.565.184-.836q.093-.441.221-.884c.099-.369.209-.737.32-1.106.135-.442.294-.872.454-1.315.11-.319.22-.614.355-.921.074-.197.16-.394.246-.59.123-.307.27-.627.417-.934.086-.184.172-.356.258-.541.012-.024.025-.037.037-.061.11-.234.22-.467.344-.688.098-.197.208-.406.319-.602.171-.32.343-.627.527-.946 8.37-14.34 27.063-17.682 34.058-32.611 6.431-13.712 5.707-27.388 4.774-42.01-.061-.786-.515-1.524-.38-2.347.012-.012.025-.012.037-.012.196 0 1.19.7 1.423.91 9.549 8.096 13.943 29.796 11.856 41.616-.847 4.78-5.019 12.619-1.202 16.588.859.885 1.779 1.253 2.724 1.253.16 0 .332-.012.491-.037.049 0 .098-.012.135-.012.147-.024.307-.061.467-.111.159-.036.306-.086.454-.147.208-.086.417-.172.626-.283.208-.11.405-.221.601-.356a9 9 0 0 0 .589-.418c.196-.147.393-.307.589-.467.086-.086.184-.172.27-.258.098-.086.197-.184.282-.27.27-.258.54-.541.786-.848.184-.196.344-.393.491-.59.086-.098.159-.196.233-.294a9 9 0 0 0 .442-.615c.135-.209.27-.418.405-.614.123-.209.245-.406.356-.602.282-.492.503-.971.675-1.401 1.804-4.559 1.792-9.117 1.178-13.885 5.965 6.144 10.089 14.721 11.856 23.113 2 9.559.81 18.271-2.528 27.376z"/><path fill="#56aff4" d="M74.915 157.351a32 32 0 0 0-1.387 6.131c.43.516.908 1.02 1.473 1.487.037.024.061.061.098.098l.098.098c.062.074.123.136.172.185.123.11.258.196.467.196a1 1 0 0 0 .245-.037c-.614-2.641-1.055-5.394-1.166-8.158m32.45 6.34c.062.663.172 1.327.319 2.003a24 24 0 0 1-.319-2.003m-26.313 15.15a35 35 0 0 0 1.092 3.183 42 42 0 0 1-1.092-3.183"/><path fill="#f54816" d="M113.011 101.345c1.669 7.041-1.792 14.032-6.321 19.23-7.621 8.736-18.974 11.231-26.816 20.274-4.002 4.62-5.217 10.555-4.959 16.502.11 2.764.552 5.517 1.166 8.159a1 1 0 0 1-.245.036.66.66 0 0 1-.467-.196 3 3 0 0 1-.172-.184l-.098-.099c-.037-.037-.061-.073-.098-.098a11 11 0 0 1-1.473-1.487c-1.264-1.523-2.135-3.244-3.424-4.853-.417.43-.908.786-1.19 1.351-1.436 2.9-.32 8.196.552 11.255 1.767 6.181 5.376 12.103 8.787 17.485-.024.025-.061.037-.122.037-.393 0-1.46-.688-2.406-1.351-.209-.16-.417-.308-.601-.443a30 30 0 0 1-1.031-.786c-15.01-11.673-23.442-33.176-18.471-51.84 7.155-26.909 25.871-40.13 40.317-61.879 3.486-5.247 10.567-18.48 10.567-24.587v-5.615c.172-.037.295-.062.393-.062.184 0 .245.074.282.172.012.05.025.111.037.172.025.062.037.123.086.185 3.67 5.05 5.965 13.516 6.775 19.684 1.092 8.27 1.939 21.822-3.596 28.605-2.75 3.379-11.095 8.33-11.88 12.041a8.6 8.6 0 0 0-.185 1.671c0 2.777 1.866 3.895 4.222 3.895 2.099 0 4.603-.884 6.529-2.248.356-.258.688-.516.995-.799.466-.418.883-.86 1.215-1.339z"/><path fill="#ffcf51" d="M53.302 169.098a63 63 0 0 1-1.694-4.104c-3.976-10.85-4.639-21.995-1.914-32.242 5.13-19.303 15.918-32.18 26.35-44.615 5.008-5.984 10.187-12.152 14.777-19.082 4.21-6.328 9.549-17.571 9.549-21.184v-6.77c0-1.794 1.043-3.465 2.7-4.153 1.448-.602 2.687-.897 3.829-.897 2.589 0 4.811 1.462 5.842 3.735 4.148 6.107 6.554 15.187 7.425 21.81.381 2.937.638 5.714.761 8.343a5.4 5.4 0 0 1 1.178-.122c.651 0 2.602 0 5.388 2.359 9.561 8.11 14.176 25.14 14.507 38.262a6.3 6.3 0 0 1 1.301-.848 6.2 6.2 0 0 1 2.663-.614c1.62 0 3.216.651 4.406 1.855 6.456 6.648 11.365 16.17 13.464 26.135 2.111 10.051 1.227 19.82-2.774 30.755-.319.861-.663 1.696-1.006 2.532 18.299 1.757 35.776 4.312 52.173 7.544.491-1.671.773-3.428.773-5.259V68.416a18.45 18.45 0 0 0-9.315-16.035L115.821 2.408a18.38 18.38 0 0 0-18.532.197L8.972 55.391A18.45 18.45 0 0 0 0 71.217v101.505c0 .934.086 1.831.22 2.728 16.778-2.85 34.55-5.001 53.07-6.352z"/><path fill="#ffcf51" d="M33.137 9.83h14.115a6.14 6.14 0 0 1 6.136 6.143v29.551H27.001v-29.55a6.14 6.14 0 0 1 6.136-6.144"/></g><defs><clipPath id="a"><path fill="#fff" d="M0 0h213v200H0z"/></clipPath></defs></svg>