<svg width="32" height="32" viewBox="0 0 32 32" fill="none" xmlns="http://www.w3.org/2000/svg">
<path d="M7.60003 4C6.85745 4 6.14525 4.30292 5.62014 4.84209C5.09503 5.38127 4.80002 6.11254 4.80002 6.87502C4.80002 7.63749 5.09503 8.36877 5.62014 8.90794C6.14525 9.44712 6.85745 9.75004 7.60003 9.75004C8.09114 9.74964 8.57355 9.61655 8.99873 9.36426C9.42399 9.11197 9.77709 8.74925 10.0226 8.31253H13.2V15.5H4.80002V12.625H2V27H4.80002V24.125H21.6V27H30V21.25C30 18.0914 27.4762 15.5 24.4 15.5H16V8.31253H19.1801C19.4254 8.74886 19.7781 9.11126 20.2028 9.36355C20.6275 9.61584 21.1093 9.74909 21.6 9.75004C22.3426 9.75004 23.0548 9.44712 23.5799 8.90794C24.105 8.36877 24.4 7.63749 24.4 6.87502C24.4 6.11254 24.105 5.38127 23.5799 4.84209C23.0548 4.30292 22.3426 4 21.6 4C21.1088 4.00039 20.6265 4.13341 20.2013 4.38578C19.776 4.63807 19.4229 5.00078 19.1773 5.43751H16V4H13.2V5.43751H10.0199C9.77462 5.00118 9.42191 4.63878 8.99719 4.38649C8.57248 4.1342 8.09068 4.00087 7.60003 4ZM4.80002 18.375H24.4C25.9633 18.375 27.2 19.6448 27.2 21.25V24.125H24.4V21.25H4.80002V18.375Z" fill="#182944"/>
</svg>
