<svg xmlns="http://www.w3.org/2000/svg" width="688" height="924" fill="none" viewBox="0 0 688 924"><g clip-path="url(#a)"><path stroke="#57aef4" stroke-linecap="round" stroke-linejoin="round" stroke-miterlimit="10" stroke-width="20" d="m38.6 56.068 3.293.72 3.28.727 3.26.744 3.227.768 3.185.8 3.131.84 3.069.886 2.996.942 2.915 1.002 2.825 1.07 2.727 1.142 2.622 1.222 2.51 1.306 2.392 1.395 2.269 1.487 2.14 1.583 2.01 1.681 1.874 1.783 1.738 1.885 1.6 1.989 1.462 2.092 1.323 2.196 1.188 2.299 1.052 2.399.92 2.498.794 2.594.67 2.687.551 2.775.44 2.859.334 2.938.237 3.012.147 3.078.065 3.14-.007 3.195-.07 3.241-.122 3.281-.166 3.313-.198 3.337-.219 3.354-.23 3.362-.23 3.361-.22 3.354-.198 3.337-.165 3.313-.123 3.281-.07 3.241-.006 3.195.065 3.14.147 3.078.236 3.012.335 2.938.44 2.859.551 2.775.67 2.687.793 2.594.921 2.498 1.052 2.399 1.187 2.299 1.324 2.196 1.461 2.092 1.6 1.989 1.738 1.885 1.875 1.783 2.009 1.681 2.141 1.583 2.269 1.487 2.392 1.395 2.51 1.306 2.622 1.222 2.727 1.143 2.825 1.069 2.915 1.002 2.996.942 3.069.887 3.131.839 3.184.8 3.227.768 3.26.744 3.281.728 3.292.719 3.292.719 3.281.728 3.259.744 3.227.768 3.184.8 3.132.839 3.068.887 2.997.941 2.915 1.003 2.825 1.069 2.727 1.143 2.622 1.222 2.51 1.306 2.392 1.395 2.268 1.487 2.141 1.583 2.009 1.681 1.875 1.783 1.738 1.885 1.6 1.989 1.462 2.092 1.323 2.196 1.187 2.299 1.053 2.399.921 2.498.792 2.594.67 2.687.552 2.775.44 2.859.334 2.938.237 3.011.146 3.079.066 3.14-.007 3.194-.07 3.242-.123 3.281-.165 3.313-.198 3.337-.219 3.354-.23 3.361-.231 3.362-.219 3.354-.198 3.337-.165 3.313-.123 3.281-.07 3.241-.007 3.195.066 3.139.147 3.079.236 3.012.335 2.938.439 2.859.552 2.775.67 2.687.793 2.594.92 2.498 1.053 2.399 1.187 2.299 1.323 2.196 1.462 2.092 1.6 1.989 1.738 1.885 1.875 1.783 2.009 1.681 2.141 1.583 2.269 1.487 2.392 1.395 2.509 1.305 2.622 1.222 2.728 1.143 2.825 1.07 2.915 1.002 2.996.941 3.068.887 3.132.84 3.184.8 3.227.768 3.26.744 3.281.727 3.291.72 3.292.719 3.281.728 3.26.743 3.227.768 3.184.801 3.132.839 3.068.887 2.996.941 2.915 1.003 2.825 1.069 2.728 1.143 2.621 1.222 2.51 1.306 2.392 1.395 2.269 1.487 2.141 1.583 2.009 1.681 1.875 1.783 1.738 1.885 1.6 1.989 1.461 2.092 1.324 2.196 1.187 2.298 1.053 2.4.92 2.498.793 2.594.67 2.687.552 2.775.439 2.859.335 2.938.236 3.011.147 3.079.066 3.14-.007 3.194-.07 3.242-.123 3.281-.165 3.313-.198 3.337-.219 3.354-.231 3.361-.23 3.362-.219 3.354-.198 3.337-.165 3.313-.123 3.281-.07 3.241-.007 3.194.066 3.14.146 3.079.237 3.012.334 2.938.44 2.859.552 2.775.669 2.687.793 2.594.921 2.498 1.053 2.399 1.187 2.299 1.323 2.196 1.462 2.092 1.6 1.989 1.738 1.885 1.875 1.782 2.009 1.682 2.141 1.583 2.268 1.487 2.392 1.394 2.51 1.306 2.622 1.222 2.727 1.143 2.825 1.07 2.915 1.002 2.997.941 3.068.887 3.131.84 3.185.8 3.227.768 3.259.744 3.281.727 3.292.72 3.292.719 3.281.728 3.26.743 3.227.768 3.184.8 3.131.84 3.069.887 2.996.941 2.915 1.002 2.825 1.07 2.727 1.143 2.622 1.222 2.51 1.306 2.392 1.395 2.269 1.487 2.141 1.582 2.009 1.682 1.875 1.783 1.738 1.885 1.6 1.988 1.461 2.093 1.324 2.196 1.187 2.298 1.052 2.4.921 2.498.793 2.594.67 2.687.551 2.775.44 2.859.335 2.938.236 3.011.147 3.079.065 3.14-.007 3.194-.069 3.241-.123 3.281-.165 3.314-.198 3.337-.22 3.353-.23 3.362-.23 3.362-.219 3.353-.198 3.338-.166 3.313-.122 3.281-.07 3.241-.007 3.194.065 3.14.147 3.079.237 3.012.334 2.938.44 2.859.552 2.775.669 2.686.793 2.594.921 2.499 1.052 2.399 1.187 2.299 1.324 2.196 1.462 2.092 1.6 1.989 1.738 1.885 1.874 1.782 2.01 1.682 2.14 1.583 2.269 1.487 2.392 1.394 2.51 1.306 2.622 1.222 2.727 1.143 2.825 1.07 2.915 1.002 2.996.941 3.069.887 3.131.84 3.185.8 3.227.768 3.259.744 3.281.727 3.292.72 3.292.719 3.281.728 3.259.743 3.228.768 3.184.8 3.131.84 3.069.887 2.996.941 2.915 1.002 2.825 1.07 2.727 1.143 2.622 1.222 2.51 1.306 2.392 1.394 2.269 1.487 2.141 1.583 2.009 1.682 1.874 1.783 1.738 1.885 1.6 1.988 1.462 2.093 1.324 2.196 1.187 2.298 1.052 2.4.921 2.498.793 2.594.67 2.686.551 2.776.44 2.859.334 2.938.237 3.011.147 3.079.065 3.14-.007 3.194-.069 3.241-.123 3.281-.166 3.313-.197 3.338-.22 3.353-.23 3.362-.23 3.362-.22 3.353-.197 3.338-.166 3.313-.123 3.281-.069 3.241-.007 3.194.065 3.14.147 3.079.237 3.011.334 2.938.44 2.86.551 2.775.67 2.686.793 2.594.921 2.499 1.052 2.399 1.187 2.298 1.324 2.196 1.462 2.093 1.6 1.988 1.738 1.886 1.874 1.782 2.009 1.682 2.141 1.583 2.269 1.487 2.392 1.394 2.51 1.306 2.622 1.222 2.727 1.143 2.825 1.07 2.915 1.002 2.996.941 3.069.887 3.131.84 3.184.8 3.228.768 3.259.744 3.281.727"/></g><defs><clipPath id="a"><path fill="#fff" d="M0 924V0h688v924z"/></clipPath></defs></svg>