<svg width="213" height="200" viewBox="0 0 213 200" fill="none" xmlns="http://www.w3.org/2000/svg">
<g clip-path="url(#clip0_50_25)">
<path d="M155.304 165.608C155.071 166.222 154.838 166.849 154.592 167.451C154.101 168.667 153.574 169.859 153.009 171.027C152.751 171.555 152.481 172.071 152.224 172.587C151.585 173.779 150.923 174.946 150.223 176.077C149.941 176.519 149.646 176.974 149.352 177.416C149.057 177.846 148.762 178.288 148.456 178.718C148.247 179.013 148.038 179.308 147.817 179.603C147.547 179.984 147.265 180.365 146.971 180.733C143.878 184.715 140.257 188.18 136.219 191.03C135.274 191.694 134.305 192.333 133.311 192.922C133.188 192.996 133.065 193.07 132.942 193.144C132.574 193.365 132.206 193.574 131.838 193.783C131.826 193.795 131.801 193.795 131.789 193.807C131.543 193.942 131.298 194.09 131.028 194.213C130.66 194.421 130.279 194.618 129.899 194.802C129.359 195.073 128.819 195.331 128.266 195.576C128.217 195.601 128.156 195.626 128.107 195.65C127.579 195.896 127.039 196.117 126.499 196.338C126.413 196.375 126.315 196.412 126.229 196.449C125.787 196.633 125.333 196.805 124.879 196.965C124.449 197.125 124.02 197.272 123.59 197.42C123.504 197.444 123.418 197.481 123.333 197.506C123.038 197.604 122.743 197.702 122.437 197.788C122.412 197.8 122.375 197.8 122.351 197.813C122.056 197.899 121.774 197.985 121.479 198.071C121.283 198.132 121.087 198.181 120.89 198.231C120.522 198.341 120.154 198.439 119.773 198.525C119.761 198.525 119.749 198.538 119.737 198.538C119.307 198.636 118.841 198.747 118.411 198.845L117.27 199.078C116.693 199.189 116.104 199.287 115.515 199.386C114.876 199.496 114.226 199.582 113.575 199.656C112.925 199.742 112.262 199.803 111.599 199.852C110.937 199.902 110.274 199.951 109.611 199.975C109.218 199.975 108.826 200 108.445 200C106.825 200 105.217 199.852 103.622 199.594L109.059 195.073C110.286 193.746 111.501 192.419 112.692 191.055C113.269 190.404 113.833 189.74 114.398 189.077C114.975 188.401 115.539 187.713 116.104 187.012C116.521 186.508 116.926 186.005 117.331 185.489C118.571 183.891 119.786 182.269 120.939 180.598C121.443 179.873 121.946 179.124 122.437 178.374C128.463 177.785 133.74 175.216 136.526 169.638C139.656 163.359 137.41 156.822 133.127 151.735L128.119 164.281C127.923 164.772 127.505 165.153 126.99 165.288C126.622 165.387 126.241 165.313 125.873 165.202C123.578 164.514 119.872 163.052 118.276 162.266C116.423 161.344 117.27 160.373 117.441 159.612L121.737 147.754C121.516 147.742 121.308 147.742 121.111 147.742C120.743 147.742 120.387 147.754 120.043 147.779C119.602 147.804 119.172 147.84 118.755 147.902C118.436 147.951 118.129 148 117.822 148.062C117.699 148.086 117.576 148.111 117.454 148.148C117.159 148.209 116.877 148.283 116.595 148.369C116.251 148.467 115.92 148.578 115.601 148.713C115.269 148.836 114.95 148.971 114.643 149.118C114.398 149.229 114.165 149.352 113.931 149.487C113.821 149.548 113.71 149.61 113.6 149.684C113.355 149.819 113.134 149.966 112.9 150.126C112.545 150.372 112.201 150.642 111.869 150.925C111.685 151.084 111.501 151.256 111.329 151.428C111.158 151.588 110.986 151.772 110.826 151.944C110.667 152.116 110.519 152.288 110.372 152.46C110.213 152.669 110.053 152.866 109.906 153.087C109.759 153.284 109.624 153.48 109.488 153.689C109.403 153.824 109.317 153.959 109.243 154.095C109.169 154.218 109.096 154.34 109.034 154.463C108.826 154.844 108.629 155.25 108.458 155.655C108.359 155.889 108.273 156.122 108.188 156.355C108.126 156.528 108.053 156.724 108.003 156.908C107.942 157.093 107.893 157.265 107.844 157.449C107.795 157.597 107.77 157.732 107.733 157.879C107.697 158.014 107.672 158.162 107.635 158.309C107.598 158.457 107.574 158.592 107.549 158.739C107.488 159.083 107.427 159.427 107.39 159.784C107.39 159.808 107.378 159.833 107.39 159.857C107.341 160.214 107.316 160.558 107.304 160.914C107.292 161.184 107.279 161.455 107.279 161.725C107.279 162.155 107.292 162.585 107.328 163.027C107.341 163.249 107.365 163.47 107.39 163.691C107.463 164.355 107.574 165.018 107.709 165.694C107.807 166.148 107.918 166.603 108.053 167.058C108.47 168.508 109.857 170.658 110.102 171.936C110.2 172.501 109.979 172.808 109.734 173.263C109.083 174.098 108.421 174.922 107.746 175.745C107.5 176.04 107.267 176.335 107.022 176.617C106.788 176.912 106.543 177.207 106.285 177.49C106.064 177.748 105.843 178.006 105.622 178.264C104.984 179.001 104.334 179.726 103.671 180.451C102.959 181.225 102.247 181.974 101.511 182.724C100.836 183.424 100.149 184.112 99.4491 184.776C99.2282 184.997 98.995 185.218 98.7741 185.427C98.3322 185.845 97.8904 186.25 97.4486 186.656C97.3995 186.693 97.3627 186.742 97.3136 186.779C97.0558 187.012 96.7981 187.246 96.5281 187.479C95.939 188.008 95.3253 188.536 94.7117 189.052C94.5889 189.15 94.4662 189.249 94.3435 189.347C93.7789 189.826 93.1898 190.293 92.6007 190.76C92.4657 190.87 92.3307 190.969 92.1957 191.079H92.1834C91.1279 191.903 90.0601 192.689 88.9678 193.451L88.4033 193.266C88.0474 192.763 87.6792 192.259 87.3355 191.743C87.1882 191.522 87.041 191.301 86.8937 191.079C86.8323 190.993 86.7832 190.907 86.7219 190.821C86.4764 190.44 86.2187 190.047 85.9855 189.654C85.3841 188.683 84.8195 187.688 84.2918 186.68C84.0831 186.275 83.8745 185.87 83.6659 185.452C83.5922 185.292 83.5186 185.132 83.4327 184.973C83.1995 184.481 82.9786 183.977 82.7576 183.474C82.549 182.994 82.3526 182.503 82.1685 182.024C81.7512 180.967 81.3831 179.91 81.0762 178.841C80.9658 178.485 80.8676 178.141 80.7817 177.785C80.6835 177.44 80.5976 177.084 80.5117 176.74C80.4258 176.396 80.3398 176.052 80.2662 175.708C80.1557 175.192 80.0453 174.676 79.9594 174.172C79.8612 173.656 79.7875 173.152 79.7139 172.648C79.6648 172.317 79.628 171.973 79.5912 171.641C79.5544 171.309 79.5175 170.977 79.493 170.646C79.4194 169.736 79.3825 168.827 79.3825 167.918C79.3825 167.525 79.3948 167.144 79.4194 166.763C79.4071 166.689 79.4194 166.615 79.4194 166.542C79.4439 166.222 79.4562 165.89 79.493 165.559C79.5544 164.809 79.6525 164.06 79.7753 163.31C79.8244 162.991 79.8857 162.683 79.9594 162.364C80.0085 162.081 80.0698 161.799 80.1435 161.528C80.2048 161.234 80.2785 160.939 80.3644 160.644C80.4626 160.275 80.573 159.907 80.6835 159.538C80.8185 159.096 80.978 158.666 81.1376 158.223C81.2481 157.904 81.3585 157.609 81.4935 157.302C81.5672 157.105 81.6531 156.908 81.739 156.712C81.8617 156.405 82.009 156.085 82.1563 155.778C82.2422 155.594 82.3281 155.422 82.414 155.237C82.4263 155.213 82.4385 155.2 82.4508 155.176C82.5613 154.942 82.6717 154.709 82.7945 154.488C82.8926 154.291 83.0031 154.082 83.1136 153.886C83.2854 153.566 83.4572 153.259 83.6413 152.94C92.0116 138.6 110.704 135.258 117.699 120.329C124.13 106.617 123.406 92.9409 122.473 78.319C122.412 77.5326 121.958 76.7954 122.093 75.9721C122.105 75.9598 122.118 75.9598 122.13 75.9598C122.326 75.9598 123.32 76.6602 123.553 76.8691C133.102 84.9664 137.496 106.666 135.409 118.486C134.562 123.266 130.39 131.105 134.207 135.074C135.066 135.959 135.986 136.327 136.931 136.327C137.091 136.327 137.263 136.315 137.422 136.29C137.471 136.29 137.52 136.278 137.557 136.278C137.704 136.254 137.864 136.217 138.024 136.167C138.183 136.131 138.33 136.081 138.478 136.02C138.686 135.934 138.895 135.848 139.104 135.737C139.312 135.627 139.509 135.516 139.705 135.381C139.901 135.258 140.098 135.111 140.294 134.963C140.49 134.816 140.687 134.656 140.883 134.496C140.969 134.41 141.067 134.324 141.153 134.238C141.251 134.152 141.35 134.054 141.435 133.968C141.705 133.71 141.975 133.427 142.221 133.12C142.405 132.924 142.565 132.727 142.712 132.53C142.798 132.432 142.871 132.334 142.945 132.236C143.105 132.027 143.252 131.83 143.387 131.621C143.522 131.412 143.657 131.203 143.792 131.007C143.915 130.798 144.037 130.601 144.148 130.405C144.43 129.913 144.651 129.434 144.823 129.004C146.627 124.445 146.615 119.887 146.001 115.119C151.966 121.263 156.09 129.84 157.857 138.232C159.857 147.791 158.667 156.503 155.329 165.608H155.304Z" fill="#56AFF4"/>
<path d="M74.9151 157.351C74.2524 159.366 73.786 161.393 73.5283 163.482C73.9578 163.998 74.4365 164.502 75.001 164.969C75.0379 164.993 75.0624 165.03 75.0992 165.067C75.136 165.104 75.1729 165.141 75.1974 165.165C75.2588 165.239 75.3201 165.301 75.3692 165.35C75.492 165.46 75.627 165.546 75.8356 165.546C75.9092 165.546 75.9829 165.534 76.0811 165.509C75.4674 162.868 75.0256 160.115 74.9151 157.351ZM107.365 163.691C107.427 164.354 107.537 165.018 107.684 165.694C107.549 165.018 107.439 164.354 107.365 163.691ZM81.0517 178.841C81.3585 179.91 81.7267 180.967 82.144 182.024C81.739 180.979 81.3708 179.91 81.0517 178.841Z" fill="#56AFF4"/>
<path d="M113.011 101.345C114.68 108.386 111.219 115.377 106.69 120.575C99.0686 129.311 87.716 131.806 79.8735 140.849C75.8724 145.469 74.6574 151.404 74.9151 157.351C75.0256 160.115 75.4674 162.868 76.0811 165.51C75.9829 165.534 75.9092 165.546 75.8356 165.546C75.627 165.546 75.492 165.46 75.3692 165.35C75.3201 165.301 75.2588 165.239 75.1974 165.166C75.1729 165.141 75.136 165.104 75.0992 165.067C75.0624 165.03 75.0379 164.994 75.001 164.969C74.4365 164.502 73.9578 163.998 73.5283 163.482C72.2641 161.959 71.3927 160.238 70.1041 158.629C69.6868 159.059 69.1958 159.415 68.9136 159.98C67.4776 162.88 68.5945 168.176 69.4659 171.235C71.2332 177.416 74.8415 183.338 78.2534 188.72C78.2289 188.745 78.192 188.757 78.1307 188.757C77.7379 188.757 76.6702 188.069 75.7251 187.406C75.5165 187.246 75.3079 187.098 75.1238 186.963C74.6451 186.607 74.2524 186.312 74.0928 186.177C59.0828 174.504 50.6512 153.001 55.6218 134.337C62.777 107.428 81.4935 94.2065 95.939 72.458C99.4245 67.2114 106.506 53.978 106.506 47.8712V42.2559C106.678 42.219 106.801 42.1945 106.899 42.1945C107.083 42.1945 107.144 42.2682 107.181 42.3665C107.193 42.4156 107.206 42.4771 107.218 42.5385C107.243 42.5999 107.255 42.6614 107.304 42.7228C110.974 47.7729 113.269 56.2388 114.079 62.407C115.171 70.6764 116.018 84.2292 110.483 91.0118C107.733 94.3908 99.3877 99.3426 98.6022 103.053C98.4795 103.668 98.4181 104.221 98.4181 104.724C98.4181 107.501 100.284 108.619 102.64 108.619C104.739 108.619 107.243 107.735 109.169 106.371C109.525 106.113 109.857 105.855 110.164 105.572C110.63 105.154 111.047 104.712 111.379 104.233L113.011 101.345Z" fill="#FFCF51"/>
<path d="M53.3022 169.098C52.6885 167.746 52.1239 166.382 51.6085 164.994C47.632 154.144 46.9692 142.999 49.6939 132.752C54.824 113.449 65.6121 100.572 76.0442 88.1368C81.0517 82.1529 86.2309 75.9847 90.8211 69.0547C95.0308 62.7267 100.37 51.4839 100.37 47.8714V41.1011C100.37 39.3072 101.413 37.6361 103.07 36.948C104.518 36.3459 105.757 36.051 106.899 36.051C109.488 36.051 111.71 37.5132 112.741 39.7864C116.889 45.8931 119.295 54.9734 120.166 61.5963C120.547 64.5329 120.804 67.3099 120.927 69.9393C121.308 69.8533 121.713 69.8165 122.105 69.8165C122.756 69.8165 124.707 69.8165 127.493 72.1756C137.054 80.2852 141.669 97.3154 142 110.438C142.393 110.106 142.822 109.824 143.301 109.59C144.148 109.185 145.068 108.976 145.964 108.976C147.584 108.976 149.18 109.627 150.37 110.831C156.826 117.479 161.735 127.001 163.834 136.966C165.945 147.017 165.061 156.786 161.06 167.721C160.741 168.582 160.397 169.417 160.054 170.253C178.353 172.01 195.83 174.565 212.227 177.797C212.718 176.126 213 174.369 213 172.538V68.4157C213 61.7806 209.441 55.6615 203.685 52.3808L115.821 2.40848C110.065 -0.872226 102.984 -0.798502 97.289 2.60507L8.97165 55.3912C3.41193 58.7211 0 64.7295 0 71.2172V172.722C0 173.656 0.0859118 174.553 0.220916 175.45C16.9983 172.6 34.7697 170.449 53.2899 169.098H53.3022Z" fill="#182944"/>
<path d="M33.1374 9.82983H47.2515C50.6389 9.82983 53.3881 12.5822 53.3881 15.9735V45.5244H27.0009V15.9735C27.0009 12.5822 29.75 9.82983 33.1374 9.82983Z" fill="#182944"/>
</g>
<defs>
<clipPath id="clip0_50_25">
<rect width="213" height="200" fill="white"/>
</clipPath>
</defs>
</svg>
