<svg width="137" height="130" viewBox="0 0 137 130" fill="none" xmlns="http://www.w3.org/2000/svg">
<path d="M63.7549 1.82715C66.1129 -0.609123 70.02 -0.609183 72.3779 1.82715L134.432 65.9492C138.116 69.7565 135.418 76.1221 130.12 76.1221H115.013C115.048 76.8676 115.066 77.6178 115.066 78.3721V123.372C115.066 126.686 112.38 129.372 109.066 129.372H27.0664C23.7528 129.372 21.0665 126.686 21.0664 123.372V78.3721C21.0664 77.6178 21.085 76.8676 21.1201 76.1221H6.01172C0.713938 76.1217 -1.98404 69.7564 1.7002 65.9492L63.7549 1.82715ZM68.0518 50C67.6029 50 67.1646 50.138 66.7969 50.3955C62.6496 53.4561 58.855 56.9687 55.4844 60.8682C47.9677 69.5005 44.0001 78.6007 44 87.1865C44 93.5682 46.5354 99.6886 51.0479 104.201C55.5604 108.714 61.6807 111.249 68.0625 111.249C74.4443 111.249 80.5646 108.714 85.0771 104.201C89.5896 99.6886 92.125 93.5682 92.125 87.1865C92.1249 78.6007 88.1573 69.5005 80.6406 60.8682C77.2631 56.9675 73.4616 53.4548 69.3066 50.3955C68.9389 50.138 68.5007 50 68.0518 50ZM79.9238 87.5898C80.3971 87.254 80.9845 87.1196 81.5566 87.2168C82.1288 87.314 82.6387 87.6351 82.9746 88.1084C83.3104 88.5817 83.4448 89.1691 83.3477 89.7412H83.334C82.7667 92.9094 81.2419 95.8279 78.9658 98.1035C76.6896 100.379 73.7709 101.903 70.6025 102.47C70.4859 102.488 70.3681 102.498 70.25 102.499C69.7013 102.499 69.1722 102.293 68.7686 101.921C68.3651 101.549 68.1158 101.04 68.0703 100.493C68.0249 99.9463 68.1866 99.4019 68.5234 98.9688C68.8602 98.5357 69.3477 98.245 69.8887 98.1543C74.4195 97.3914 78.2648 93.5469 79.0332 89.0078C79.1304 88.4357 79.4506 87.9257 79.9238 87.5898ZM28.0664 9.37207C30.8278 9.37208 33.0664 11.6107 33.0664 14.3721V25.0469L11.1914 47.6504C11.1102 47.2929 11.0664 46.9211 11.0664 46.5391V14.3721C11.0665 11.6107 13.305 9.37207 16.0664 9.37207H28.0664Z" fill="#56AFF4"/>
</svg>
